<?xml version="1.0"?>
<svg xmlns="http://www.w3.org/2000/svg" height="512px" viewBox="0 0 512.00035 512" width="512px"><path d="m347.082031 0c-8.289062 0-15 6.710938-15 15 0 8.285156 6.710938 14.996094 15 14.996094 36.097657-.011719 70 14.003906 95.457031 39.464844 25.460938 25.460937 39.472657 59.359374 39.464844 95.457031 0 8.289062 6.714844 15 15 15s14.996094-6.710938 14.996094-15c.011719-44.113281-17.121094-85.546875-48.246094-116.671875s-72.558594-48.2578128-116.671875-48.246094zm0 0" fill="#FFFFFF"/><path d="m422.03125 164.917969c0 8.289062 6.710938 15 15 15 8.273438.011719 14.996094-6.710938 14.996094-15 .019531-56.117188-48.828125-104.964844-104.945313-104.945313-8.289062 0-15.011719 6.722656-15 14.996094 0 8.289062 6.710938 15 15 15 40.125-.019531 74.96875 34.824219 74.949219 74.949219zm0 0" fill="#FFFFFF"/><path d="m362.078125 164.898438c-.019531 8.226562 6.632813 15 14.980469 15.019531 8.285156.019531 15.003906-6.703125 15.015625-14.980469.042969-24.027344-20.984375-45.054688-45.015625-45.011719-8.273438.007813-14.996094 6.730469-14.976563 15.015625.019531 8.308594 6.730469 15.019532 15.019531 14.980469 7.976563-.019531 14.996094 7 14.976563 14.976563zm0 0" fill="#FFFFFF"/><path d="m241.585938 114.878906c-20.90625.871094-40.628907 10.523438-54.132813 26.496094l-176.886719 208.417969c-15.011718 17.703125-13.902344 44.457031 2.515625 60.875l88.25 88.25c16.417969 16.417969 43.175781 17.523437 60.875 2.519531l208.417969-176.890625c15.96875-13.507813 25.625-33.226563 26.496094-54.128906.859375-20.894531-7.117188-41.359375-21.90625-56.152344l-77.480469-77.476563c-14.792969-14.792968-35.257813-22.769531-56.148437-21.910156zm-96.050782 145.480469c5.855469-5.859375 15.355469-5.859375 21.214844 0 5.855469 5.859375 5.855469 15.355469 0 21.214844-5.859375 5.855469-15.355469 5.855469-21.214844 0-5.859375-5.859375-5.859375-15.359375 0-21.214844zm21.230469 127.296875c5.863281 5.863281 5.863281 15.355469 0 21.214844-5.859375 5.863281-15.347656 5.863281-21.210937 0l-10.605469-10.605469-10.605469 10.605469c-5.863281 5.863281-15.351562 5.863281-21.214844 0-5.863281-5.859375-5.863281-15.351563 0-21.214844l10.605469-10.601562-10.605469-10.609376c-5.863281-5.863281-5.863281-15.351562 0-21.210937 5.863282-5.863281 15.351563-5.863281 21.214844 0l10.605469 10.605469 10.605469-10.605469c5.863281-5.863281 15.351562-5.863281 21.210937 0 5.863281 5.859375 5.863281 15.347656 0 21.210937l-10.605469 10.609376zm42.40625-63.65625c-5.855469 5.855469-15.351563 5.855469-21.210937 0-5.859376-5.859375-5.859376-15.355469 0-21.214844 5.859374-5.859375 15.355468-5.859375 21.210937 0 5.859375 5.859375 5.859375 15.351563 0 21.214844zm0-84.855469c-5.855469 5.859375-15.351563 5.859375-21.210937 0-5.859376-5.855469-5.859376-15.355469 0-21.210937 5.859374-5.859375 15.355468-5.859375 21.210937 0 5.859375 5.859375 5.859375 15.355468 0 21.210937zm42.429687 127.28125c-5.859374 5.855469-15.355468 5.855469-21.214843 0-5.859375-5.859375-5.859375-15.359375 0-21.214843 5.859375-5.859376 15.355469-5.859376 21.214843 0 5.855469 5.859374 5.855469 15.355468 0 21.214843zm0-84.855469c-5.859374 5.859376-15.355468 5.859376-21.214843 0-5.859375-5.855468-5.859375-15.355468 0-21.214843 5.859375-5.855469 15.355469-5.855469 21.214843 0 5.855469 5.863281 5.855469 15.359375 0 21.214843zm0-84.851562c-5.859374 5.859375-15.355468 5.859375-21.214843 0s-5.859375-15.355469 0-21.214844 15.355469-5.855468 21.214843 0c5.855469 5.859375 5.855469 15.355469 0 21.214844zm63.636719 63.640625c5.859375-5.859375 15.359375-5.859375 21.214844 0 5.859375 5.859375 5.859375 15.355469 0 21.214844-5.855469 5.855469-15.355469 5.855469-21.214844 0-5.855469-5.859375-5.855469-15.359375 0-21.214844zm-21.210937 63.640625c-5.859375 5.855469-15.355469 5.855469-21.214844 0-5.855469-5.859375-5.855469-15.355469 0-21.214844 5.859375-5.859375 15.355469-5.859375 21.214844 0s5.859375 15.351563 0 21.214844zm0 0" fill="#FFFFFF"/></svg>
